<svg class="react-calendar-heatmap" viewBox="0 0 404 132"><g transform="translate(30, 0)" class="react-calendar-heatmap-month-labels"><text x="26" y="10" class="react-calendar-heatmap-month-label">Jan</text><text x="91" y="10" class="react-calendar-heatmap-month-label">Fev</text><text x="143" y="10" class="react-calendar-heatmap-month-label">Mar</text><text x="195" y="10" class="react-calendar-heatmap-month-label">Abr</text><text x="247" y="10" class="react-calendar-heatmap-month-label">Mai</text><text x="312" y="10" class="react-calendar-heatmap-month-label">Jun</text></g><g transform="translate(30, 14)" class="react-calendar-heatmap-all-weeks"><g transform="translate(0, 0)" class="react-calendar-heatmap-week"><rect width="10" height="10" x="0" y="0" class="color-scale-0"><title></title></rect><rect width="10" height="10" x="0" y="13" class="color-scale-0"><title></title></rect><rect width="10" height="10" x="0" y="26" class="color-scale-0"><title></title></rect><rect width="10" height="10" x="0" y="39" class="color-scale-0"><title></title></rect><rect width="10" height="10" x="0" y="52" class="color-scale-0"><title></title></rect><rect width="10" height="10" x="0" y="65" class="color-scale-0"><title></title></rect><rect width="10" height="10" x="0" y="78" class="color-scale-0"><title></title></rect></g><g transform="translate(13, 0)" class="react-calendar-heatmap-week"><rect width="10" height="10" x="0" y="0" class="color-scale-0"><title></title></rect><rect width="10" height="10" x="0" y="13" class="color-scale-0"><title></title></rect><rect width="10" height="10" x="0" y="26" class="color-scale-0"><title></title></rect><rect width="10" height="10" x="0" y="39" class="color-scale-0"><title></title></rect><rect width="10" height="10" x="0" y="52" class="color-scale-0"><title></title></rect><rect width="10" height="10" x="0" y="65" class="color-scale-0"><title></title></rect><rect width="10" height="10" x="0" y="78" class="color-scale-0"><title></title></rect></g><g transform="translate(26, 0)" class="react-calendar-heatmap-week"><rect width="10" height="10" x="0" y="0" class="color-scale-0"><title></title></rect><rect width="10" height="10" x="0" y="13" class="color-scale-0"><title></title></rect><rect width="10" height="10" x="0" y="26" class="color-scale-0"><title></title></rect><rect width="10" height="10" x="0" y="39" class="color-scale-0"><title></title></rect><rect width="10" height="10" x="0" y="52" class="color-scale-0"><title></title></rect><rect width="10" height="10" x="0" y="65" class="color-scale-0"><title></title></rect><rect width="10" height="10" x="0" y="78" class="color-scale-0"><title></title></rect></g><g transform="translate(39, 0)" class="react-calendar-heatmap-week"><rect width="10" height="10" x="0" y="0" class="color-scale-0"><title></title></rect><rect width="10" height="10" x="0" y="13" class="color-scale-0"><title></title></rect><rect width="10" height="10" x="0" y="26" class="color-scale-0"><title></title></rect><rect width="10" height="10" x="0" y="39" class="color-scale-0"><title></title></rect><rect width="10" height="10" x="0" y="52" class="color-scale-0"><title></title></rect><rect width="10" height="10" x="0" y="65" class="color-scale-0"><title></title></rect><rect width="10" height="10" x="0" y="78" class="color-scale-0"><title></title></rect></g><g transform="translate(52, 0)" class="react-calendar-heatmap-week"><rect width="10" height="10" x="0" y="0" class="color-scale-0"><title></title></rect><rect width="10" height="10" x="0" y="13" class="color-scale-0"><title></title></rect><rect width="10" height="10" x="0" y="26" class="color-scale-0"><title></title></rect><rect width="10" height="10" x="0" y="39" class="color-scale-0"><title></title></rect><rect width="10" height="10" x="0" y="52" class="color-scale-0"><title></title></rect><rect width="10" height="10" x="0" y="65" class="color-scale-0"><title></title></rect><rect width="10" height="10" x="0" y="78" class="color-scale-0"><title></title></rect></g><g transform="translate(65, 0)" class="react-calendar-heatmap-week"><rect width="10" height="10" x="0" y="0" class="color-scale-0"><title></title></rect><rect width="10" height="10" x="0" y="13" class="color-scale-0"><title></title></rect><rect width="10" height="10" x="0" y="26" class="color-scale-3 " data-tip="Atividades em 19/01/2021: 5" currentItem="false"><title></title></rect><rect width="10" height="10" x="0" y="39" class="color-scale-0"><title></title></rect><rect width="10" height="10" x="0" y="52" class="color-scale-0"><title></title></rect><rect width="10" height="10" x="0" y="65" class="color-scale-0"><title></title></rect><rect width="10" height="10" x="0" y="78" class="color-scale-0"><title></title></rect></g><g transform="translate(78, 0)" class="react-calendar-heatmap-week"><rect width="10" height="10" x="0" y="0" class="color-scale-0"><title></title></rect><rect width="10" height="10" x="0" y="13" class="color-scale-0"><title></title></rect><rect width="10" height="10" x="0" y="26" class="color-scale-0"><title></title></rect><rect width="10" height="10" x="0" y="39" class="color-scale-0"><title></title></rect><rect width="10" height="10" x="0" y="52" class="color-scale-0"><title></title></rect><rect width="10" height="10" x="0" y="65" class="color-scale-0"><title></title></rect><rect width="10" height="10" x="0" y="78" class="color-scale-0"><title></title></rect></g><g transform="translate(91, 0)" class="react-calendar-heatmap-week"><rect width="10" height="10" x="0" y="0" class="color-scale-0"><title></title></rect><rect width="10" height="10" x="0" y="13" class="color-scale-0"><title></title></rect><rect width="10" height="10" x="0" y="26" class="color-scale-0"><title></title></rect><rect width="10" height="10" x="0" y="39" class="color-scale-0"><title></title></rect><rect width="10" height="10" x="0" y="52" class="color-scale-0"><title></title></rect><rect width="10" height="10" x="0" y="65" class="color-scale-0"><title></title></rect><rect width="10" height="10" x="0" y="78" class="color-scale-0"><title></title></rect></g><g transform="translate(104, 0)" class="react-calendar-heatmap-week"><rect width="10" height="10" x="0" y="0" class="color-scale-0"><title></title></rect><rect width="10" height="10" x="0" y="13" class="color-scale-0"><title></title></rect><rect width="10" height="10" x="0" y="26" class="color-scale-0"><title></title></rect><rect width="10" height="10" x="0" y="39" class="color-scale-0"><title></title></rect><rect width="10" height="10" x="0" y="52" class="color-scale-0"><title></title></rect><rect width="10" height="10" x="0" y="65" class="color-scale-0"><title></title></rect><rect width="10" height="10" x="0" y="78" class="color-scale-0"><title></title></rect></g><g transform="translate(117, 0)" class="react-calendar-heatmap-week"><rect width="10" height="10" x="0" y="0" class="color-scale-0"><title></title></rect><rect width="10" height="10" x="0" y="13" class="color-scale-0"><title></title></rect><rect width="10" height="10" x="0" y="26" class="color-scale-0"><title></title></rect><rect width="10" height="10" x="0" y="39" class="color-scale-0"><title></title></rect><rect width="10" height="10" x="0" y="52" class="color-scale-0"><title></title></rect><rect width="10" height="10" x="0" y="65" class="color-scale-0"><title></title></rect><rect width="10" height="10" x="0" y="78" class="color-scale-0"><title></title></rect></g><g transform="translate(130, 0)" class="react-calendar-heatmap-week"><rect width="10" height="10" x="0" y="0" class="color-scale-0"><title></title></rect><rect width="10" height="10" x="0" y="13" class="color-scale-0"><title></title></rect><rect width="10" height="10" x="0" y="26" class="color-scale-0"><title></title></rect><rect width="10" height="10" x="0" y="39" class="color-scale-0"><title></title></rect><rect width="10" height="10" x="0" y="52" class="color-scale-0"><title></title></rect><rect width="10" height="10" x="0" y="65" class="color-scale-0"><title></title></rect><rect width="10" height="10" x="0" y="78" class="color-scale-0"><title></title></rect></g><g transform="translate(143, 0)" class="react-calendar-heatmap-week"><rect width="10" height="10" x="0" y="0" class="color-scale-0"><title></title></rect><rect width="10" height="10" x="0" y="13" class="color-scale-0"><title></title></rect><rect width="10" height="10" x="0" y="26" class="color-scale-0"><title></title></rect><rect width="10" height="10" x="0" y="39" class="color-scale-0"><title></title></rect><rect width="10" height="10" x="0" y="52" class="color-scale-0"><title></title></rect><rect width="10" height="10" x="0" y="65" class="color-scale-0"><title></title></rect><rect width="10" height="10" x="0" y="78" class="color-scale-0"><title></title></rect></g><g transform="translate(156, 0)" class="react-calendar-heatmap-week"><rect width="10" height="10" x="0" y="0" class="color-scale-0"><title></title></rect><rect width="10" height="10" x="0" y="13" class="color-scale-0"><title></title></rect><rect width="10" height="10" x="0" y="26" class="color-scale-0"><title></title></rect><rect width="10" height="10" x="0" y="39" class="color-scale-0"><title></title></rect><rect width="10" height="10" x="0" y="52" class="color-scale-0"><title></title></rect><rect width="10" height="10" x="0" y="65" class="color-scale-0"><title></title></rect><rect width="10" height="10" x="0" y="78" class="color-scale-0"><title></title></rect></g><g transform="translate(169, 0)" class="react-calendar-heatmap-week"><rect width="10" height="10" x="0" y="0" class="color-scale-0"><title></title></rect><rect width="10" height="10" x="0" y="13" class="color-scale-0"><title></title></rect><rect width="10" height="10" x="0" y="26" class="color-scale-0"><title></title></rect><rect width="10" height="10" x="0" y="39" class="color-scale-0"><title></title></rect><rect width="10" height="10" x="0" y="52" class="color-scale-0"><title></title></rect><rect width="10" height="10" x="0" y="65" class="color-scale-0"><title></title></rect><rect width="10" height="10" x="0" y="78" class="color-scale-0"><title></title></rect></g><g transform="translate(182, 0)" class="react-calendar-heatmap-week"><rect width="10" height="10" x="0" y="0" class="color-scale-0"><title></title></rect><rect width="10" height="10" x="0" y="13" class="color-scale-0"><title></title></rect><rect width="10" height="10" x="0" y="26" class="color-scale-0"><title></title></rect><rect width="10" height="10" x="0" y="39" class="color-scale-0"><title></title></rect><rect width="10" height="10" x="0" y="52" class="color-scale-0"><title></title></rect><rect width="10" height="10" x="0" y="65" class="color-scale-0"><title></title></rect><rect width="10" height="10" x="0" y="78" class="color-scale-0"><title></title></rect></g><g transform="translate(195, 0)" class="react-calendar-heatmap-week"><rect width="10" height="10" x="0" y="0" class="color-scale-0"><title></title></rect><rect width="10" height="10" x="0" y="13" class="color-scale-0"><title></title></rect><rect width="10" height="10" x="0" y="26" class="color-scale-0"><title></title></rect><rect width="10" height="10" x="0" y="39" class="color-scale-0"><title></title></rect><rect width="10" height="10" x="0" y="52" class="color-scale-0"><title></title></rect><rect width="10" height="10" x="0" y="65" class="color-scale-0"><title></title></rect><rect width="10" height="10" x="0" y="78" class="color-scale-0"><title></title></rect></g><g transform="translate(208, 0)" class="react-calendar-heatmap-week"><rect width="10" height="10" x="0" y="0" class="color-scale-0"><title></title></rect><rect width="10" height="10" x="0" y="13" class="color-scale-0"><title></title></rect><rect width="10" height="10" x="0" y="26" class="color-scale-0"><title></title></rect><rect width="10" height="10" x="0" y="39" class="color-scale-0"><title></title></rect><rect width="10" height="10" x="0" y="52" class="color-scale-0"><title></title></rect><rect width="10" height="10" x="0" y="65" class="color-scale-0"><title></title></rect><rect width="10" height="10" x="0" y="78" class="color-scale-0"><title></title></rect></g><g transform="translate(221, 0)" class="react-calendar-heatmap-week"><rect width="10" height="10" x="0" y="0" class="color-scale-0"><title></title></rect><rect width="10" height="10" x="0" y="13" class="color-scale-0"><title></title></rect><rect width="10" height="10" x="0" y="26" class="color-scale-0"><title></title></rect><rect width="10" height="10" x="0" y="39" class="color-scale-0"><title></title></rect><rect width="10" height="10" x="0" y="52" class="color-scale-0"><title></title></rect><rect width="10" height="10" x="0" y="65" class="color-scale-0"><title></title></rect><rect width="10" height="10" x="0" y="78" class="color-scale-0"><title></title></rect></g><g transform="translate(234, 0)" class="react-calendar-heatmap-week"><rect width="10" height="10" x="0" y="0" class="color-scale-0"><title></title></rect><rect width="10" height="10" x="0" y="13" class="color-scale-0"><title></title></rect><rect width="10" height="10" x="0" y="26" class="color-scale-0"><title></title></rect><rect width="10" height="10" x="0" y="39" class="color-scale-0"><title></title></rect><rect width="10" height="10" x="0" y="52" class="color-scale-0"><title></title></rect><rect width="10" height="10" x="0" y="65" class="color-scale-0"><title></title></rect><rect width="10" height="10" x="0" y="78" class="color-scale-0"><title></title></rect></g><g transform="translate(247, 0)" class="react-calendar-heatmap-week"><rect width="10" height="10" x="0" y="0" class="color-scale-0"><title></title></rect><rect width="10" height="10" x="0" y="13" class="color-scale-0"><title></title></rect><rect width="10" height="10" x="0" y="26" class="color-scale-0"><title></title></rect><rect width="10" height="10" x="0" y="39" class="color-scale-0"><title></title></rect><rect width="10" height="10" x="0" y="52" class="color-scale-0"><title></title></rect><rect width="10" height="10" x="0" y="65" class="color-scale-0"><title></title></rect><rect width="10" height="10" x="0" y="78" class="color-scale-0"><title></title></rect></g><g transform="translate(260, 0)" class="react-calendar-heatmap-week"><rect width="10" height="10" x="0" y="0" class="color-scale-1 " data-tip="Atividades em 02/05/2021: 1" currentItem="false"><title></title></rect><rect width="10" height="10" x="0" y="13" class="color-scale-0"><title></title></rect><rect width="10" height="10" x="0" y="26" class="color-scale-0"><title></title></rect><rect width="10" height="10" x="0" y="39" class="color-scale-0"><title></title></rect><rect width="10" height="10" x="0" y="52" class="color-scale-0"><title></title></rect><rect width="10" height="10" x="0" y="65" class="color-scale-0"><title></title></rect><rect width="10" height="10" x="0" y="78" class="color-scale-0"><title></title></rect></g><g transform="translate(273, 0)" class="react-calendar-heatmap-week"><rect width="10" height="10" x="0" y="0" class="color-scale-0"><title></title></rect><rect width="10" height="10" x="0" y="13" class="color-scale-0"><title></title></rect><rect width="10" height="10" x="0" y="26" class="color-scale-0"><title></title></rect><rect width="10" height="10" x="0" y="39" class="color-scale-0"><title></title></rect><rect width="10" height="10" x="0" y="52" class="color-scale-0"><title></title></rect><rect width="10" height="10" x="0" y="65" class="color-scale-0"><title></title></rect><rect width="10" height="10" x="0" y="78" class="color-scale-0"><title></title></rect></g><g transform="translate(286, 0)" class="react-calendar-heatmap-week"><rect width="10" height="10" x="0" y="0" class="color-scale-3 " data-tip="Atividades em 16/05/2021: 5" currentItem="false"><title></title></rect><rect width="10" height="10" x="0" y="13" class="color-scale-0"><title></title></rect><rect width="10" height="10" x="0" y="26" class="color-scale-0"><title></title></rect><rect width="10" height="10" x="0" y="39" class="color-scale-0"><title></title></rect><rect width="10" height="10" x="0" y="52" class="color-scale-0"><title></title></rect><rect width="10" height="10" x="0" y="65" class="color-scale-0"><title></title></rect><rect width="10" height="10" x="0" y="78" class="color-scale-0"><title></title></rect></g><g transform="translate(299, 0)" class="react-calendar-heatmap-week"><rect width="10" height="10" x="0" y="0" class="color-scale-0"><title></title></rect><rect width="10" height="10" x="0" y="13" class="color-scale-0"><title></title></rect><rect width="10" height="10" x="0" y="26" class="color-scale-0"><title></title></rect><rect width="10" height="10" x="0" y="39" class="color-scale-0"><title></title></rect><rect width="10" height="10" x="0" y="52" class="color-scale-0"><title></title></rect><rect width="10" height="10" x="0" y="65" class="color-scale-0"><title></title></rect><rect width="10" height="10" x="0" y="78" class="color-scale-0"><title></title></rect></g><g transform="translate(312, 0)" class="react-calendar-heatmap-week"><rect width="10" height="10" x="0" y="0" class="color-scale-0"><title></title></rect><rect width="10" height="10" x="0" y="13" class="color-scale-0"><title></title></rect><rect width="10" height="10" x="0" y="26" class="color-scale-0"><title></title></rect><rect width="10" height="10" x="0" y="39" class="color-scale-0"><title></title></rect><rect width="10" height="10" x="0" y="52" class="color-scale-0"><title></title></rect><rect width="10" height="10" x="0" y="65" class="color-scale-0"><title></title></rect><rect width="10" height="10" x="0" y="78" class="color-scale-0"><title></title></rect></g><g transform="translate(325, 0)" class="react-calendar-heatmap-week"><rect width="10" height="10" x="0" y="0" class="color-scale-0"><title></title></rect><rect width="10" height="10" x="0" y="13" class="color-scale-0"><title></title></rect><rect width="10" height="10" x="0" y="26" class="color-scale-0"><title></title></rect><rect width="10" height="10" x="0" y="39" class="color-scale-0"><title></title></rect><rect width="10" height="10" x="0" y="52" class="color-scale-0"><title></title></rect><rect width="10" height="10" x="0" y="65" class="color-scale-0"><title></title></rect><rect width="10" height="10" x="0" y="78" class="color-scale-0"><title></title></rect></g><g transform="translate(338, 0)" class="react-calendar-heatmap-week"><rect width="10" height="10" x="0" y="0" class="color-scale-0"><title></title></rect><rect width="10" height="10" x="0" y="13" class="color-scale-0"><title></title></rect><rect width="10" height="10" x="0" y="26" class="color-scale-0"><title></title></rect><rect width="10" height="10" x="0" y="39" class="color-scale-0"><title></title></rect><rect width="10" height="10" x="0" y="52" class="color-scale-0"><title></title></rect><rect width="10" height="10" x="0" y="65" class="color-scale-0"><title></title></rect><rect width="10" height="10" x="0" y="78" class="color-scale-0"><title></title></rect></g><g transform="translate(351, 0)" class="react-calendar-heatmap-week"><rect width="10" height="10" x="0" y="0" class="color-scale-0"><title></title></rect><rect width="10" height="10" x="0" y="13" class="color-scale-5 " data-tip="Atividades em 21/06/2021: 8" currentItem="false"><title></title></rect><rect width="10" height="10" x="0" y="26" class="color-scale-0"><title></title></rect><rect width="10" height="10" x="0" y="39" class="color-scale-0"><title></title></rect><rect width="10" height="10" x="0" y="52" class="color-scale-0"><title></title></rect><rect width="10" height="10" x="0" y="65" class="color-scale-0"><title></title></rect><rect width="10" height="10" x="0" y="78" class="color-scale-0"><title></title></rect></g><g transform="translate(364, 0)" class="react-calendar-heatmap-week"><rect width="10" height="10" x="0" y="0" class="color-scale-0"><title></title></rect><rect width="10" height="10" x="0" y="13" class="color-scale-0"><title></title></rect><rect width="10" height="10" x="0" y="26" class="color-scale-0"><title></title></rect><rect width="10" height="10" x="0" y="39" class="color-scale-0"><title></title></rect><rect width="10" height="10" x="0" y="52" class="color-scale-0"><title></title></rect><rect width="10" height="10" x="0" y="65" class="color-scale-0"><title></title></rect><rect width="10" height="10" x="0" y="78" class="color-scale-0"><title></title></rect></g></g><g transform="translate(10, 14)" class="react-calendar-heatmap-weekday-labels"><text x="0" y="23" class=" react-calendar-heatmap-weekday-label">S</text><text x="0" y="49" class=" react-calendar-heatmap-weekday-label">Q</text><text x="0" y="75" class=" react-calendar-heatmap-weekday-label">S</text></g></svg>